<svg width="23" height="17" viewBox="0 0 23 17" fill="none" xmlns="http://www.w3.org/2000/svg">
<path d="M10.9578 9.34531C10.2978 9.34531 9.75781 8.80531 9.75781 8.14531C9.75781 7.48531 10.2978 6.94531 10.9578 6.94531C11.6178 6.94531 12.1578 7.48531 12.1578 8.14531C12.1578 8.80531 11.6178 9.34531 10.9578 9.34531Z" fill="url(#paint0_linear_108_565)"/>
<path d="M11.25 13.5C12.6424 13.5 13.9777 12.9469 14.9623 11.9623C15.9469 10.9777 16.5 9.64239 16.5 8.25C16.5 6.85761 15.9469 5.52226 14.9623 4.53769C13.9777 3.55312 12.6424 3 11.25 3C9.85761 3 8.52226 3.55312 7.53769 4.53769C6.55312 5.52226 6 6.85761 6 8.25C6 9.64239 6.55312 10.9777 7.53769 11.9623C8.52226 12.9469 9.85761 13.5 11.25 13.5ZM11.25 4.875C13.0875 4.8975 14.58 6.435 14.58 8.2875V8.895C14.58 9.5625 14.0325 10.11 13.365 10.11C12.9075 10.11 12.51 9.855 12.3 9.48C11.955 9.825 11.475 10.0425 10.95 10.0425C9.9 10.0425 9.045 9.1875 9.045 8.1375C9.045 7.0875 9.9 6.2325 10.95 6.2325C11.4075 6.2325 11.82 6.3975 12.15 6.66V6.5925C12.15 6.3975 12.3225 6.24 12.5175 6.24C12.7125 6.24 12.87 6.3975 12.87 6.5925V8.9025C12.87 9.03577 12.9229 9.16358 13.0172 9.25782C13.1114 9.35206 13.2392 9.405 13.3725 9.405C13.5058 9.405 13.6336 9.35206 13.7278 9.25782C13.8221 9.16358 13.875 9.03577 13.875 8.9025V8.295C13.875 6.8175 12.69 5.6025 11.2425 5.58C10.5225 5.58 9.84 5.85 9.33 6.3525C8.82 6.855 8.535 7.53 8.535 8.25C8.535 9.72 9.735 10.92 11.205 10.92C11.2985 10.92 11.3881 10.9571 11.4543 11.0232C11.5204 11.0894 11.5575 11.179 11.5575 11.2725C11.5575 11.366 11.5204 11.4556 11.4543 11.5218C11.3881 11.5879 11.2985 11.625 11.205 11.625C9.345 11.625 7.83 10.11 7.83 8.25C7.83 7.3425 8.1825 6.4875 8.835 5.85C9.48 5.205 10.3425 4.86 11.25 4.875Z" fill="url(#paint1_linear_108_565)"/>
<path d="M1.68429e-06 1.5075C1.68429e-06 0.6735 0.673502 0 1.5075 0H21C21.8318 0 22.5 0.678 22.5 1.5075V15C22.5 15.8317 21.822 16.5 20.9925 16.5H1.5075C1.30945 16.5003 1.11329 16.4615 0.930256 16.3859C0.747224 16.3102 0.580921 16.1992 0.440878 16.0591C0.300834 15.9191 0.189804 15.7528 0.11415 15.5697C0.0384959 15.3867 -0.000294578 15.1906 1.68429e-06 14.9925V1.5075ZM1.5 1.50375V1.8765L6.2625 4.911C5.98101 5.32989 5.7537 5.78274 5.586 6.25875L1.5 3.65475V13.26L5.715 10.5743C5.90955 11.0372 6.16153 11.4739 6.465 11.874L1.56 15H20.9513L16.0335 11.8702C16.3371 11.4697 16.5891 11.0325 16.7835 10.569L21 13.2533V3.66L16.911 6.2625C16.7438 5.78632 16.517 5.33322 16.236 4.914L21 1.88325V1.50225L20.997 1.5H1.50375L1.5015 1.5015L1.50075 1.503L1.5 1.50375Z" fill="url(#paint2_linear_108_565)"/>
<defs>
<linearGradient id="paint0_linear_108_565" x1="10.9578" y1="6.94531" x2="10.9578" y2="9.34531" gradientUnits="userSpaceOnUse">
<stop stop-color="#FF961A"/>
<stop offset="1" stop-color="#EC1908"/>
</linearGradient>
<linearGradient id="paint1_linear_108_565" x1="11.25" y1="3" x2="11.25" y2="13.5" gradientUnits="userSpaceOnUse">
<stop stop-color="#FF961A"/>
<stop offset="1" stop-color="#EC1908"/>
</linearGradient>
<linearGradient id="paint2_linear_108_565" x1="11.25" y1="0" x2="11.25" y2="16.5" gradientUnits="userSpaceOnUse">
<stop stop-color="#FF961A"/>
<stop offset="1" stop-color="#EC1908"/>
</linearGradient>
</defs>
</svg>
