<svg width="17" height="17" viewBox="0 0 17 17" fill="none" xmlns="http://www.w3.org/2000/svg">
<path d="M8.26855 0C3.70018 0 1.36018e-06 3.70018 1.36018e-06 8.26855C-0.000994221 10.0042 0.544567 11.6962 1.55929 13.1044C2.57402 14.5125 4.00639 15.5655 5.65321 16.1138C6.06664 16.1857 6.22208 15.9376 6.22208 15.7202C6.22208 15.5242 6.21134 14.8735 6.21134 14.1806C4.13428 14.5634 3.59682 13.6745 3.43145 13.209C3.33801 12.9709 2.93534 12.2375 2.58392 12.0407C2.29452 11.886 1.8811 11.5032 2.57317 11.4933C3.22474 11.4825 3.68943 12.0928 3.84488 12.3408C4.58905 13.591 5.77724 13.2396 6.25268 13.023C6.32544 12.4855 6.54208 12.1242 6.78021 11.9175C4.94046 11.7107 3.01802 10.9972 3.01802 7.83445C3.01802 6.93483 3.33801 6.19149 3.86555 5.61186C3.78286 5.40515 3.49346 4.55762 3.94823 3.4207C3.94823 3.4207 4.64031 3.20406 6.22208 4.26905C6.8952 4.08223 7.59067 3.98821 8.28922 3.98957C8.99205 3.98957 9.69488 4.08218 10.3564 4.26823C11.9381 3.19331 12.6302 3.42153 12.6302 3.42153C13.085 4.55845 12.7956 5.40598 12.7129 5.61269C13.2396 6.19149 13.5604 6.92491 13.5604 7.83445C13.5604 11.0079 11.6281 11.7107 9.78748 11.9175C10.0876 12.1754 10.3464 12.6716 10.3464 13.4471C10.3464 14.5526 10.3357 15.4415 10.3357 15.721C10.3357 15.9376 10.4911 16.1956 10.9046 16.1129C12.5457 15.5586 13.9718 14.5037 14.982 13.0965C15.9923 11.6893 16.5359 10.0008 16.5363 8.26855C16.5363 3.70018 12.8361 0 8.26772 0H8.26855Z" fill="#0B0909"/>
</svg>
