<svg width="16" height="15" viewBox="0 0 16 15" fill="none" xmlns="http://www.w3.org/2000/svg">
<path d="M3.30742 1.65454C3.3072 2.09313 3.13276 2.51367 2.82247 2.82364C2.51219 3.13362 2.09147 3.30764 1.65288 3.30742C1.21429 3.3072 0.793752 3.13276 0.483776 2.82247C0.1738 2.51219 -0.000219089 2.09147 2.07013e-07 1.65288C0.000219503 1.21429 0.174659 0.793751 0.484945 0.483776C0.795231 0.1738 1.21595 -0.000219089 1.65454 2.07013e-07C2.09313 0.000219503 2.51367 0.174659 2.82364 0.484945C3.13362 0.795231 3.30764 1.21595 3.30742 1.65454ZM3.35703 4.53199H0.0496115V14.8842H3.35703V4.53199ZM8.58275 4.53199H5.29187V14.8842H8.54968V9.45178C8.54968 6.42549 12.4938 6.14436 12.4938 9.45178V14.8842H15.7599V8.32726C15.7599 3.22556 9.92226 3.41574 8.54968 5.92111L8.58275 4.53199Z" fill="#0077B5"/>
</svg>
